#define complete_width 64
#define complete_height 128
const static unsigned char complete_bits[] U8X8_PROGMEM = {
   0x00, 0x00, 0x00, 0x00, 0x00, 0x00, 0x00, 0x00, 0x00, 0x00, 0x18, 0x00,
   0x80, 0x01, 0x00, 0x00, 0x00, 0xc3, 0x18, 0x00, 0x80, 0x01, 0x00, 0x00,
   0x00, 0xc7, 0x00, 0x00, 0x80, 0x01, 0x00, 0x00, 0x00, 0xcf, 0x00, 0x00,
   0x80, 0x01, 0x00, 0x00, 0x00, 0xcf, 0xd8, 0x18, 0x8f, 0x01, 0x00, 0x00,
   0x00, 0xdb, 0xd8, 0x98, 0x9f, 0x01, 0x00, 0x00, 0x00, 0xf3, 0x98, 0x8d,
   0x99, 0x01, 0x00, 0x00, 0x00, 0xf3, 0x98, 0x8d, 0x9f, 0x01, 0x00, 0x00,
   0x00, 0xe3, 0x98, 0x8d, 0x81, 0x01, 0x00, 0x00, 0x00, 0xe3, 0x18, 0x87,
   0x9f, 0x03, 0x00, 0x00, 0x00, 0xc3, 0x18, 0x07, 0x1f, 0x03, 0x00, 0x00,
   0x00, 0x00, 0x00, 0x00, 0x00, 0x00, 0x00, 0x00, 0x00, 0x00, 0x00, 0x00,
   0x00, 0x00, 0x00, 0x00, 0x00, 0x00, 0x00, 0x00, 0x00, 0x00, 0x00, 0x00,
   0x00, 0x00, 0x00, 0x00, 0x00, 0x00, 0x00, 0x00, 0x00, 0x00, 0x00, 0x00,
   0x00, 0x00, 0x00, 0x00, 0x00, 0x00, 0x00, 0x00, 0x00, 0x00, 0x00, 0x00,
   0x00, 0x00, 0x00, 0x00, 0x00, 0x00, 0x0c, 0x00, 0xc0, 0x07, 0x00, 0x00,
   0x00, 0x00, 0x0c, 0x60, 0xe0, 0x07, 0x00, 0x00, 0x00, 0x00, 0x0c, 0x60,
   0x60, 0x00, 0x00, 0x00, 0x00, 0x00, 0x0c, 0x60, 0x66, 0x30, 0xfb, 0xf0,
   0x7c, 0x8f, 0x8f, 0x63, 0xc6, 0x31, 0xfb, 0xf9, 0x7d, 0xdf, 0xcf, 0x67,
   0x86, 0x37, 0x9b, 0x99, 0x0d, 0xd8, 0x6c, 0x6c, 0x00, 0x36, 0x9b, 0xf9,
   0x0d, 0xdf, 0x6c, 0x0c, 0x06, 0x36, 0x9b, 0x19, 0x8c, 0xd9, 0x6c, 0x6c,
   0xe6, 0xf7, 0xfb, 0xf9, 0x8d, 0xdf, 0xcf, 0x67, 0xe6, 0xe3, 0xfb, 0xf0,
   0x0d, 0x9f, 0x8f, 0x63, 0x06, 0x00, 0x18, 0x00, 0x00, 0x00, 0x00, 0x00,
   0x06, 0x00, 0x18, 0x00, 0x00, 0x00, 0x00, 0x00, 0x06, 0x00, 0x18, 0x00,
   0x00, 0x00, 0x00, 0x00, 0x00, 0x00, 0x00, 0x00, 0x00, 0x00, 0x00, 0x00,
   0x00, 0x00, 0x00, 0x00, 0x00, 0x00, 0x00, 0x00, 0x28, 0x00, 0x08, 0x00,
   0x20, 0x82, 0x00, 0x00, 0x11, 0x00, 0x15, 0x00, 0x40, 0x45, 0x01, 0x00,
   0x08, 0x80, 0x08, 0x00, 0x00, 0x82, 0x00, 0x00, 0x54, 0x00, 0x55, 0x44,
   0x44, 0x47, 0x45, 0x45, 0xaa, 0x00, 0xa8, 0xaa, 0x2a, 0xaa, 0xaa, 0xaa,
   0x57, 0x05, 0x51, 0x55, 0x55, 0x55, 0x55, 0x55, 0x00, 0x82, 0x80, 0x00,
   0x08, 0x80, 0x00, 0x00, 0x00, 0x14, 0x41, 0x00, 0x04, 0xc0, 0x00, 0x00,
   0x00, 0x08, 0x80, 0x00, 0x08, 0x80, 0x00, 0x00, 0x00, 0x10, 0x41, 0x01,
   0x54, 0x55, 0x55, 0x00, 0x00, 0xa0, 0x80, 0x00, 0xa8, 0xaa, 0x2a, 0x00,
   0x00, 0x00, 0x00, 0x00, 0x00, 0x00, 0x00, 0x00, 0x00, 0x00, 0x00, 0x00,
   0x00, 0x00, 0x00, 0x00, 0x00, 0x00, 0x00, 0x00, 0x00, 0x00, 0x00, 0x00,
   0x00, 0x00, 0x00, 0x00, 0x00, 0x00, 0x00, 0x00, 0x00, 0x00, 0x00, 0x00,
   0x00, 0x00, 0x00, 0x00, 0x00, 0x00, 0x00, 0x00, 0x00, 0x00, 0x00, 0x00,
   0x00, 0x00, 0x00, 0x00, 0x00, 0x00, 0x00, 0x00, 0x00, 0x00, 0x00, 0x00,
   0x00, 0x00, 0x00, 0x00, 0x00, 0x00, 0x00, 0x00, 0x00, 0x00, 0x00, 0x00,
   0x00, 0x00, 0x00, 0x00, 0x00, 0x00, 0x00, 0x00, 0x00, 0x00, 0x00, 0x00,
   0x00, 0x00, 0x00, 0x00, 0x00, 0x00, 0x00, 0x00, 0x00, 0x00, 0x00, 0x00,
   0x00, 0x00, 0x00, 0x00, 0x00, 0x00, 0x00, 0x00, 0x00, 0x00, 0x00, 0x00,
   0x00, 0x00, 0x00, 0x00, 0x00, 0x00, 0x00, 0x00, 0x00, 0x00, 0x00, 0x00,
   0x00, 0x00, 0x00, 0x00, 0x00, 0x00, 0x00, 0x00, 0x00, 0x00, 0x00, 0x00,
   0x00, 0x00, 0x00, 0x00, 0x00, 0x00, 0x00, 0x00, 0x00, 0x00, 0x00, 0x00,
   0x00, 0x00, 0x00, 0x00, 0x00, 0x00, 0x00, 0x00, 0x00, 0x00, 0x00, 0x00,
   0x00, 0x00, 0x00, 0x00, 0x00, 0x04, 0x40, 0x00, 0x00, 0x15, 0x00, 0x40,
   0x00, 0x00, 0x80, 0x00, 0x00, 0x22, 0x00, 0x20, 0x01, 0x14, 0x50, 0x01,
   0x00, 0x17, 0x00, 0x50, 0x00, 0x88, 0x88, 0x08, 0x00, 0x02, 0x00, 0x00,
   0x01, 0x5c, 0xd5, 0x5d, 0x00, 0x15, 0x00, 0x40, 0x02, 0x00, 0xa2, 0x22,
   0x00, 0x22, 0x00, 0x20, 0x03, 0x00, 0x41, 0x51, 0x00, 0x17, 0x55, 0x41,
   0x02, 0x00, 0x80, 0x20, 0x00, 0x22, 0xaa, 0x22, 0x01, 0x00, 0x54, 0x50,
   0x00, 0xd5, 0x55, 0x5d, 0x00, 0x00, 0xaa, 0x20, 0x00, 0xa2, 0x00, 0x28,
   0x01, 0x00, 0x57, 0x75, 0x01, 0x57, 0x01, 0x54, 0x00, 0x00, 0x00, 0x00,
   0x00, 0x00, 0x00, 0x00, 0x00, 0x00, 0x00, 0x00, 0x00, 0x00, 0x00, 0x00,
   0x00, 0x00, 0x00, 0x00, 0x00, 0x00, 0x00, 0x00, 0x00, 0x00, 0x00, 0x00,
   0x00, 0x00, 0x00, 0x00, 0x00, 0x00, 0x00, 0x00, 0x00, 0x00, 0x00, 0x00,
   0x00, 0x00, 0x00, 0x00, 0x00, 0x00, 0x00, 0x00, 0x00, 0x00, 0x00, 0x00,
   0x00, 0x00, 0x00, 0x00, 0x00, 0x00, 0x00, 0x00, 0x00, 0x00, 0x00, 0x00,
   0x00, 0x00, 0x00, 0x00, 0x00, 0x00, 0x00, 0x00, 0x00, 0x00, 0x00, 0x00,
   0x00, 0x00, 0x00, 0x00, 0x00, 0x00, 0x00, 0x00, 0x00, 0x00, 0x00, 0x00,
   0x00, 0x00, 0x00, 0x00, 0x00, 0x00, 0x00, 0x00, 0x00, 0x00, 0x00, 0x00,
   0x00, 0x00, 0x00, 0x00, 0x00, 0x00, 0x00, 0x00, 0x00, 0x00, 0x00, 0x00,
   0x00, 0x00, 0x00, 0x00, 0x00, 0x00, 0x00, 0x00, 0x00, 0x00, 0x00, 0x00,
   0x00, 0x00, 0x00, 0x00, 0x00, 0x00, 0x00, 0x00, 0x00, 0x00, 0x00, 0x00,
   0x00, 0x00, 0x00, 0x00, 0x00, 0x00, 0x00, 0x00, 0x00, 0x00, 0x00, 0x00,
   0x00, 0x00, 0x00, 0x00, 0x00, 0x00, 0x00, 0x00, 0x00, 0x00, 0x00, 0x00,
   0x00, 0x00, 0x00, 0x00, 0x00, 0x00, 0x00, 0x00, 0x00, 0x00, 0x00, 0x00,
   0x00, 0x00, 0x00, 0x00, 0x00, 0x00, 0x00, 0x00, 0x00, 0x00, 0x00, 0x00,
   0x00, 0x00, 0x00, 0x00, 0x00, 0x00, 0x00, 0x00, 0x00, 0x00, 0x00, 0x00,
   0x00, 0x00, 0x00, 0x00, 0x00, 0x00, 0x00, 0x00, 0x00, 0x00, 0x00, 0x00,
   0x00, 0x00, 0x00, 0x00, 0x00, 0x00, 0x00, 0x00, 0x00, 0x00, 0x00, 0x00,
   0x00, 0x00, 0x00, 0x00, 0x00, 0x00, 0x00, 0x00, 0x00, 0x00, 0x00, 0x00,
   0x00, 0x00, 0x00, 0x00, 0x00, 0x00, 0x00, 0x00, 0x00, 0x00, 0x00, 0x00,
   0x00, 0x00, 0x00, 0x00, 0x00, 0x00, 0x00, 0x00, 0x00, 0x00, 0x00, 0x00,
   0x00, 0x00, 0x00, 0x00, 0x00, 0x00, 0x00, 0x00, 0x00, 0x00, 0x00, 0x00,
   0x00, 0x00, 0x00, 0x00, 0x00, 0x00, 0x00, 0x00, 0x00, 0x00, 0x00, 0x00,
   0x00, 0x00, 0x00, 0x00, 0x00, 0x00, 0x00, 0x00, 0x00, 0x00, 0x00, 0x00,
   0x00, 0x00, 0x00, 0x00, 0x00, 0x00, 0x00, 0x00, 0x00, 0x00, 0x00, 0x00,
   0x00, 0x00, 0x00, 0x00, 0x00, 0x00, 0x00, 0x00, 0x00, 0x00, 0x00, 0x00,
   0x00, 0x00, 0x00, 0x00, 0x00, 0x00, 0x00, 0x00, 0x00, 0x00, 0x00, 0x00,
   0x00, 0x00, 0x00, 0x00, 0x00, 0x00, 0x00, 0x00, 0x00, 0x00, 0x00, 0x00,
   0x00, 0x00, 0x00, 0x00, 0x00, 0x00, 0x00, 0x00, 0x00, 0x00, 0x00, 0x00,
   0x00, 0x00, 0x00, 0x00, 0x00, 0x00, 0x00, 0x00, 0x00, 0x00, 0x00, 0x00,
   0x00, 0x00, 0x00, 0x00, 0x00, 0x00, 0x00, 0x00, 0x00, 0x00, 0x00, 0x00,
   0x00, 0x00, 0x00, 0x00, 0x00, 0x00, 0x00, 0x00, 0x00, 0x00, 0x00, 0x00,
   0x00, 0x00, 0x00, 0x00, 0x00, 0x00, 0x00, 0x00, 0x00, 0x00, 0x00, 0x00,
   0x00, 0x00, 0x00, 0x00, 0x00, 0x00, 0x00, 0x00, 0x00, 0x00, 0x00, 0x00,
   0x00, 0x00, 0x00, 0x00 };
