#define playing_width 64
#define playing_height 128
const static unsigned char playing_bits[] U8X8_PROGMEM = {
   0x00, 0x00, 0x00, 0x00, 0x00, 0x00, 0x00, 0x00, 0x00, 0x00, 0x00, 0x00,
   0x00, 0x80, 0x01, 0x00, 0x80, 0x01, 0x00, 0x00, 0x00, 0x80, 0x01, 0x00,
   0x80, 0x01, 0x00, 0x00, 0x00, 0x80, 0x01, 0x00, 0x80, 0x01, 0x00, 0x00,
   0x00, 0x80, 0x01, 0x00, 0x80, 0x99, 0xf1, 0xf1, 0xf8, 0xf0, 0xe1, 0x00,
   0x80, 0x99, 0xf1, 0xf1, 0xf9, 0xf9, 0xf1, 0x01, 0x80, 0x99, 0x99, 0x81,
   0x99, 0x99, 0x19, 0x03, 0x80, 0x99, 0x99, 0xf1, 0x99, 0x99, 0x19, 0x03,
   0x80, 0x99, 0x99, 0x99, 0x99, 0x99, 0x19, 0x03, 0xf8, 0xf9, 0xf9, 0xf9,
   0x99, 0xf9, 0xf1, 0x01, 0xf8, 0xf0, 0xf1, 0xf1, 0x99, 0xf1, 0xe1, 0x00,
   0x00, 0x00, 0x80, 0x01, 0x00, 0x00, 0x00, 0x00, 0x00, 0x00, 0xf0, 0x01,
   0x00, 0x00, 0x00, 0x00, 0x00, 0x00, 0xf8, 0x00, 0x00, 0x00, 0x00, 0x00,
   0x00, 0x00, 0x00, 0x00, 0x00, 0x00, 0x00, 0x00, 0x00, 0x00, 0x00, 0x00,
   0x00, 0x00, 0x00, 0x00, 0x00, 0x00, 0x00, 0x00, 0x00, 0x00, 0x00, 0x00,
   0x00, 0x30, 0x00, 0x0c, 0x00, 0x30, 0x00, 0x00, 0x00, 0x30, 0x00, 0x0c,
   0x00, 0x30, 0x00, 0x00, 0x00, 0x30, 0x00, 0x00, 0x00, 0x30, 0x00, 0x00,
   0x00, 0x30, 0x00, 0x00, 0x00, 0x30, 0x00, 0x00, 0xe0, 0x31, 0x7c, 0x6c,
   0xcc, 0x33, 0x00, 0x00, 0xe0, 0x33, 0xfc, 0x6c, 0xec, 0x37, 0x00, 0x00,
   0x00, 0x33, 0xcc, 0xcc, 0x66, 0x36, 0x00, 0x00, 0xe0, 0x33, 0xcc, 0xcc,
   0xe6, 0x37, 0x00, 0x00, 0x30, 0x33, 0xcc, 0xcc, 0x66, 0x30, 0x00, 0x00,
   0xf0, 0x73, 0xcc, 0x8c, 0xe3, 0x77, 0x00, 0x00, 0xe0, 0x63, 0xcc, 0x8c,
   0xc3, 0x67, 0x00, 0x00, 0x00, 0x00, 0x00, 0x00, 0x00, 0x00, 0x00, 0x00,
   0x00, 0x00, 0x00, 0x00, 0x00, 0x00, 0x00, 0x00, 0x00, 0x00, 0x00, 0x00,
   0x00, 0x00, 0x00, 0x00, 0x00, 0x00, 0x00, 0x00, 0x00, 0x00, 0x00, 0x00,
   0x00, 0x00, 0x00, 0x00, 0x00, 0x00, 0x00, 0x00, 0x28, 0x00, 0x08, 0x00,
   0x20, 0x82, 0x00, 0x00, 0x11, 0x00, 0x15, 0x00, 0x40, 0x45, 0x01, 0x00,
   0x08, 0x80, 0x08, 0x00, 0x00, 0x82, 0x00, 0x00, 0x54, 0x00, 0x55, 0x44,
   0x44, 0x47, 0x45, 0x45, 0xaa, 0x00, 0xa8, 0xaa, 0x2a, 0xaa, 0xaa, 0xaa,
   0x57, 0x05, 0x51, 0x55, 0x55, 0x55, 0x55, 0x55, 0x00, 0x82, 0x80, 0x00,
   0x08, 0x80, 0x00, 0x00, 0x00, 0x14, 0x41, 0x00, 0x04, 0xc0, 0x00, 0x00,
   0x00, 0x08, 0x80, 0x00, 0x08, 0x80, 0x00, 0x00, 0x00, 0x10, 0x41, 0x01,
   0x54, 0x55, 0x55, 0x00, 0x00, 0xa0, 0x80, 0x00, 0xa8, 0xaa, 0x2a, 0x00,
   0x00, 0x00, 0x00, 0x00, 0x00, 0x00, 0x00, 0x00, 0x00, 0x00, 0x00, 0x00,
   0x00, 0x00, 0x00, 0x00, 0x00, 0x00, 0x00, 0x00, 0x00, 0x00, 0x00, 0x00,
   0x00, 0x00, 0x00, 0x00, 0x00, 0x00, 0x00, 0x00, 0x00, 0x00, 0x00, 0x00,
   0x00, 0x00, 0x00, 0x00, 0x00, 0x00, 0x00, 0x00, 0x00, 0x00, 0x00, 0x00,
   0x00, 0x00, 0x00, 0x00, 0x00, 0x00, 0x00, 0x00, 0x00, 0x00, 0x00, 0x00,
   0x00, 0x00, 0x00, 0x00, 0x00, 0x00, 0x00, 0x00, 0x00, 0x00, 0x00, 0x00,
   0x00, 0x00, 0x00, 0x00, 0x00, 0x00, 0x00, 0x00, 0x00, 0x00, 0x00, 0x00,
   0x00, 0x00, 0x00, 0x00, 0x00, 0x00, 0x00, 0x00, 0x00, 0x00, 0x00, 0x00,
   0x00, 0x00, 0x00, 0x00, 0x00, 0x00, 0x00, 0x00, 0x00, 0x00, 0x00, 0x00,
   0x00, 0x00, 0x00, 0x00, 0x00, 0x00, 0x00, 0x00, 0x00, 0x00, 0x00, 0x00,
   0x00, 0x00, 0x00, 0x00, 0x00, 0x00, 0x00, 0x00, 0x00, 0x00, 0x00, 0x00,
   0x00, 0x00, 0x00, 0x00, 0x00, 0x00, 0x00, 0x00, 0x00, 0x00, 0x00, 0x00,
   0x00, 0x00, 0x00, 0x00, 0x00, 0x00, 0x00, 0x00, 0x00, 0x00, 0x00, 0x00,
   0x00, 0x00, 0x00, 0x00, 0x00, 0x04, 0x40, 0x00, 0x00, 0x15, 0x00, 0x40,
   0x00, 0x00, 0x80, 0x00, 0x00, 0x22, 0x00, 0x20, 0x01, 0x14, 0x50, 0x01,
   0x00, 0x17, 0x00, 0x50, 0x00, 0x88, 0x88, 0x08, 0x00, 0x02, 0x00, 0x00,
   0x01, 0x5c, 0xd5, 0x5d, 0x00, 0x15, 0x00, 0x40, 0x02, 0x00, 0xa2, 0x22,
   0x00, 0x22, 0x00, 0x20, 0x03, 0x00, 0x41, 0x51, 0x00, 0x17, 0x55, 0x41,
   0x02, 0x00, 0x80, 0x20, 0x00, 0x22, 0xaa, 0x22, 0x01, 0x00, 0x54, 0x50,
   0x00, 0xd5, 0x55, 0x5d, 0x00, 0x00, 0xaa, 0x20, 0x00, 0xa2, 0x00, 0x28,
   0x01, 0x00, 0x57, 0x75, 0x01, 0x57, 0x01, 0x54, 0x00, 0x80, 0x00, 0x88,
   0x00, 0x82, 0x00, 0x08, 0x01, 0x00, 0x01, 0x05, 0x05, 0x45, 0x00, 0x04,
   0x02, 0x00, 0x82, 0x02, 0x02, 0x82, 0x00, 0x08, 0x07, 0x00, 0x41, 0x01,
   0x15, 0x47, 0x01, 0x14, 0x02, 0x80, 0x80, 0x00, 0x08, 0x82, 0x00, 0x88,
   0x07, 0x00, 0x41, 0x00, 0x14, 0xc5, 0x00, 0xdc, 0x02, 0x00, 0x20, 0x00,
   0x28, 0x82, 0x00, 0x20, 0x01, 0x00, 0x00, 0x00, 0x00, 0x00, 0x00, 0x10,
   0x00, 0x00, 0x00, 0x00, 0x00, 0x00, 0x00, 0x00, 0x05, 0x00, 0x00, 0x00,
   0x00, 0x00, 0x00, 0x44, 0x2a, 0x00, 0x00, 0x00, 0x00, 0x00, 0x00, 0xa8,
   0x17, 0x00, 0x00, 0x00, 0x00, 0x00, 0x00, 0x54, 0x00, 0x00, 0x00, 0x00,
   0x00, 0x00, 0x00, 0x00, 0x15, 0x00, 0x00, 0x00, 0x00, 0x00, 0x00, 0x00,
   0x2a, 0x00, 0x00, 0x00, 0x00, 0x00, 0x00, 0x00, 0x15, 0x00, 0x00, 0x00,
   0x00, 0x00, 0x00, 0x10, 0x00, 0x00, 0x00, 0x00, 0x00, 0x00, 0x00, 0x00,
   0x00, 0x00, 0x00, 0x00, 0x00, 0x00, 0x00, 0x5c, 0x00, 0x00, 0x00, 0x00,
   0x00, 0x00, 0x00, 0x08, 0x00, 0x00, 0x00, 0x00, 0x00, 0x00, 0x00, 0x00,
   0x00, 0x00, 0x00, 0x00, 0x00, 0x00, 0x00, 0x00, 0x00, 0x00, 0x00, 0x00,
   0x00, 0x00, 0x00, 0x00, 0x00, 0x00, 0x00, 0x00, 0x00, 0x00, 0x00, 0x00,
   0x00, 0x00, 0x00, 0x00, 0x00, 0x00, 0x00, 0x00, 0x00, 0x00, 0x00, 0x00,
   0x00, 0x00, 0x00, 0x00, 0x00, 0x00, 0x00, 0x00, 0x00, 0x00, 0x00, 0x00,
   0x00, 0x00, 0x00, 0x00, 0x00, 0x00, 0x00, 0x00, 0x00, 0x00, 0x00, 0x00,
   0x00, 0x00, 0x00, 0x00, 0x00, 0x00, 0x00, 0x00, 0x00, 0x00, 0x00, 0x00,
   0x00, 0x00, 0x00, 0x00, 0x00, 0x00, 0x00, 0x00, 0x00, 0x00, 0x00, 0x00,
   0x00, 0x00, 0x00, 0x00, 0x15, 0x00, 0x00, 0x00, 0x00, 0x00, 0x00, 0x14,
   0x2a, 0x00, 0x00, 0x00, 0x00, 0x00, 0x00, 0x08, 0x15, 0x00, 0x00, 0x00,
   0x00, 0x00, 0x00, 0x04, 0x00, 0x00, 0x00, 0x00, 0x00, 0x00, 0x00, 0x08,
   0x17, 0x00, 0x00, 0x00, 0x00, 0x00, 0x00, 0x14, 0x2a, 0x00, 0x00, 0x00,
   0x00, 0x00, 0x00, 0x08, 0x04, 0x00, 0x00, 0x00, 0x00, 0x00, 0x00, 0x04,
   0x00, 0x00, 0x00, 0x00, 0x00, 0x00, 0x00, 0x08, 0x00, 0x00, 0x00, 0x00,
   0x00, 0x00, 0x00, 0x14, 0x00, 0x00, 0x00, 0x00, 0x00, 0x00, 0x00, 0x08,
   0x00, 0x00, 0x00, 0x00, 0x00, 0x00, 0x00, 0x04, 0x00, 0x00, 0x00, 0x00,
   0x00, 0x00, 0x00, 0x08, 0x00, 0x00, 0x00, 0x00, 0x00, 0x00, 0x00, 0x14,
   0x00, 0x00, 0x00, 0x00, 0x00, 0x00, 0x00, 0x08, 0x00, 0x00, 0x00, 0x00,
   0x00, 0x00, 0x00, 0x04, 0x00, 0x00, 0x00, 0x00, 0x00, 0x00, 0x00, 0x08,
   0x01, 0x00, 0x55, 0x01, 0x00, 0x50, 0x70, 0x14, 0x00, 0x80, 0xaa, 0x00,
   0x00, 0x08, 0x20, 0x08, 0x00, 0x00, 0x45, 0x00, 0x00, 0x15, 0x40, 0x04,
   0x00, 0x00, 0x82, 0xaa, 0xaa, 0x02, 0x20, 0x08, 0x01, 0x01, 0xc1, 0xff,
   0xff, 0x05, 0x71, 0x15 };
