#define welcome_width 64
#define welcome_height 128
const static unsigned char welcome_bits[] U8X8_PROGMEM = {
   0x00, 0x08, 0x80, 0x00, 0x08, 0x00, 0x20, 0x08, 0x00, 0x04, 0x40, 0x00,
   0x04, 0x40, 0x55, 0x55, 0x00, 0x00, 0x80, 0x00, 0x08, 0x80, 0xaa, 0xaa,
   0x00, 0x14, 0x40, 0x01, 0x04, 0xc0, 0x75, 0x55, 0x00, 0x08, 0x80, 0x00,
   0x08, 0x80, 0x20, 0x08, 0x00, 0x04, 0x40, 0x00, 0x04, 0xc0, 0x40, 0x04,
   0x00, 0x00, 0x80, 0x00, 0x0a, 0x80, 0x20, 0x08, 0x00, 0x15, 0x40, 0x51,
   0x55, 0x45, 0x51, 0x15, 0x00, 0x08, 0x80, 0xa0, 0xaa, 0x82, 0x20, 0x08,
   0x00, 0x04, 0x40, 0x50, 0x54, 0xc5, 0x40, 0x04, 0x00, 0x00, 0x80, 0x20,
   0x00, 0x82, 0x20, 0x08, 0x00, 0x14, 0x40, 0x51, 0x00, 0x45, 0x51, 0x14,
   0x00, 0x00, 0x00, 0x00, 0x00, 0x00, 0x00, 0x00, 0x00, 0x00, 0x00, 0x00,
   0x00, 0x00, 0x00, 0x00, 0x7c, 0x18, 0xe6, 0xe7, 0xe3, 0x9f, 0x03, 0x1f,
   0xfc, 0x19, 0xe6, 0xe7, 0xe7, 0x9f, 0x83, 0x1f, 0x8c, 0x19, 0x66, 0x60,
   0x0c, 0xc3, 0x86, 0x01, 0x8c, 0x19, 0x66, 0x60, 0x0c, 0xc3, 0x86, 0x01,
   0x8c, 0x19, 0xe6, 0x63, 0x0c, 0xc3, 0x06, 0x07, 0xfc, 0x19, 0xe6, 0xe3,
   0x07, 0x63, 0x0c, 0x1e, 0x7c, 0x18, 0x66, 0xe0, 0x03, 0xe3, 0x0f, 0x18,
   0x0c, 0x38, 0x67, 0x60, 0x06, 0xe3, 0x0f, 0x18, 0x0c, 0xf0, 0xe3, 0x67,
   0x0e, 0x73, 0x9c, 0x1f, 0x0c, 0xe0, 0xe1, 0x67, 0x1c, 0x33, 0x98, 0x0f,
   0x00, 0x00, 0x00, 0x00, 0x00, 0x00, 0x00, 0x00, 0x00, 0x00, 0x00, 0x00,
   0x00, 0x00, 0x00, 0x00, 0x00, 0x00, 0x00, 0x00, 0x00, 0x00, 0x00, 0x00,
   0x00, 0x80, 0x00, 0x00, 0x00, 0x00, 0x00, 0x00, 0x00, 0xc0, 0x00, 0x00,
   0x00, 0x00, 0x00, 0x00, 0x00, 0x40, 0x00, 0x00, 0x00, 0x00, 0x00, 0x00,
   0x00, 0x00, 0x00, 0x00, 0x00, 0x00, 0x00, 0x00, 0x18, 0xe0, 0x03, 0x3e,
   0xc3, 0x87, 0x03, 0x1f, 0x18, 0xf0, 0x87, 0x3f, 0xe3, 0x87, 0x83, 0x1f,
   0x18, 0x30, 0x8e, 0x01, 0x73, 0xc0, 0x86, 0x01, 0x18, 0x18, 0xcc, 0x00,
   0x33, 0xc0, 0x86, 0x01, 0x18, 0x18, 0xcc, 0x00, 0x33, 0xc0, 0x06, 0x07,
   0x18, 0x18, 0xcc, 0x30, 0x33, 0x60, 0x0c, 0x1e, 0x18, 0x18, 0xcc, 0x30,
   0x33, 0xe0, 0x0f, 0x18, 0x18, 0x38, 0xce, 0x31, 0x73, 0xe0, 0x0f, 0x18,
   0xf8, 0xf3, 0x87, 0x3f, 0xe3, 0x77, 0x9c, 0x1f, 0xf8, 0xe3, 0x03, 0x3f,
   0xc3, 0x37, 0x98, 0x0f, 0x00, 0x00, 0x00, 0x00, 0x00, 0x00, 0x00, 0x00,
   0x00, 0x08, 0x80, 0x00, 0x08, 0x80, 0x00, 0x00, 0x00, 0x10, 0x41, 0x01,
   0x54, 0x55, 0x55, 0x00, 0x00, 0xa0, 0x80, 0x00, 0xa8, 0xaa, 0x2a, 0x00,
   0x00, 0x50, 0xd1, 0x05, 0x44, 0x45, 0x55, 0x00, 0x00, 0x20, 0x22, 0x02,
   0x00, 0x80, 0x20, 0x00, 0x00, 0x50, 0x11, 0x05, 0x00, 0x40, 0x51, 0x00,
   0x00, 0xa0, 0x20, 0x02, 0x00, 0x80, 0x20, 0x00, 0x00, 0x40, 0x51, 0x05,
   0x40, 0xc4, 0x50, 0x00, 0x00, 0x20, 0xa0, 0x02, 0xa8, 0xaa, 0x20, 0x00,
   0x00, 0x50, 0xf1, 0x01, 0x54, 0x55, 0x74, 0x01, 0x00, 0x80, 0xa0, 0x00,
   0x08, 0x00, 0x88, 0x00, 0x00, 0x40, 0x51, 0x01, 0x04, 0x00, 0x05, 0x05,
   0x00, 0x20, 0x20, 0x02, 0x08, 0x00, 0x02, 0x02, 0x00, 0x50, 0x75, 0x17,
   0x05, 0x40, 0x01, 0x15, 0x00, 0xa0, 0xa8, 0x8a, 0x0a, 0x80, 0x00, 0x08,
   0x00, 0x40, 0xc1, 0x55, 0x05, 0x40, 0x00, 0x14, 0x00, 0x20, 0x80, 0x00,
   0x00, 0x20, 0x00, 0x20, 0x00, 0x50, 0x41, 0x11, 0x10, 0x70, 0x00, 0x50,
   0x00, 0xa0, 0x80, 0x00, 0x00, 0x20, 0x00, 0x20, 0x55, 0x55, 0x55, 0x55,
   0x55, 0x51, 0x00, 0x50, 0xaa, 0x2a, 0xaa, 0xaa, 0xaa, 0x22, 0x00, 0x20,
   0x55, 0x55, 0x55, 0x55, 0x55, 0x17, 0x00, 0x50, 0x00, 0x08, 0x80, 0x00,
   0x00, 0x22, 0x00, 0x20, 0x00, 0x04, 0x40, 0x00, 0x00, 0x15, 0x00, 0x40,
   0x00, 0x00, 0x80, 0x00, 0x00, 0x22, 0x00, 0x20, 0x01, 0x14, 0x50, 0x01,
   0x00, 0x17, 0x00, 0x50, 0x00, 0x88, 0x88, 0x08, 0x00, 0x02, 0x00, 0x00,
   0x01, 0x5c, 0xd5, 0x5d, 0x00, 0x15, 0x00, 0x40, 0x02, 0x00, 0xa2, 0x22,
   0x00, 0x22, 0x00, 0x20, 0x03, 0x00, 0x41, 0x51, 0x00, 0x17, 0x55, 0x41,
   0x02, 0x00, 0x80, 0x20, 0x00, 0x22, 0xaa, 0x22, 0x01, 0x00, 0x54, 0x50,
   0x00, 0xd5, 0x55, 0x5d, 0x00, 0x00, 0xaa, 0x20, 0x00, 0xa2, 0x00, 0x28,
   0x01, 0x00, 0x57, 0x75, 0x01, 0x57, 0x01, 0x54, 0x00, 0x80, 0x00, 0x88,
   0x00, 0x82, 0x00, 0x08, 0x01, 0x00, 0x01, 0x05, 0x05, 0x45, 0x00, 0x04,
   0x02, 0x00, 0x82, 0x02, 0x02, 0x82, 0x00, 0x08, 0x07, 0x00, 0x41, 0x01,
   0x15, 0x47, 0x01, 0x14, 0x02, 0x80, 0x80, 0x00, 0x08, 0x82, 0x00, 0x88,
   0x07, 0x00, 0x41, 0x00, 0x14, 0xc5, 0x00, 0xdc, 0x00, 0x00, 0x00, 0x00,
   0x00, 0x00, 0x00, 0x00, 0x00, 0x00, 0x00, 0x00, 0x00, 0x00, 0x04, 0x00,
   0x00, 0x07, 0x00, 0x1c, 0x00, 0x00, 0x04, 0x00, 0x00, 0xc9, 0x2c, 0x02,
   0x73, 0xee, 0x64, 0x00, 0x00, 0x29, 0x05, 0x82, 0x94, 0x08, 0x95, 0x00,
   0x00, 0x27, 0x05, 0x92, 0x94, 0xc4, 0x95, 0x00, 0x00, 0x21, 0x05, 0x92,
   0x94, 0x22, 0x95, 0x00, 0x00, 0xc1, 0x24, 0x1c, 0x93, 0xce, 0x69, 0x00,
   0x00, 0x00, 0x00, 0x00, 0x00, 0x00, 0x00, 0x00, 0x00, 0x00, 0x00, 0x00,
   0x00, 0x00, 0x00, 0x00, 0x00, 0x00, 0x00, 0x00, 0x00, 0x00, 0x00, 0x00,
   0x00, 0x00, 0x00, 0x00, 0x00, 0x00, 0x00, 0x00, 0x00, 0x20, 0x00, 0x00,
   0x00, 0x00, 0x15, 0x00, 0xf0, 0x20, 0x00, 0xe0, 0x01, 0x00, 0x14, 0x00,
   0x08, 0xe6, 0x18, 0x23, 0x32, 0x73, 0x95, 0x31, 0x08, 0x29, 0xa5, 0xe0,
   0x49, 0x49, 0x55, 0x0a, 0x08, 0x29, 0xa5, 0x23, 0x7a, 0x49, 0x55, 0x3a,
   0x08, 0x29, 0x25, 0x22, 0x0a, 0x49, 0x55, 0x22, 0xf0, 0xe6, 0x98, 0xe1,
   0x71, 0x71, 0xa9, 0x19, 0x00, 0x00, 0x00, 0x00, 0x00, 0x40, 0x00, 0x00,
   0x00, 0x00, 0x00, 0x00, 0x00, 0x38, 0x00, 0x00, 0x00, 0x00, 0x00, 0x00,
   0x00, 0x00, 0x00, 0x00, 0x00, 0x80, 0x00, 0x00, 0x88, 0x82, 0x20, 0x08,
   0x00, 0x50, 0x00, 0x00, 0xdc, 0xc5, 0x40, 0x04, 0x00, 0x20, 0x00, 0x00,
   0x20, 0x80, 0x20, 0x08, 0x55, 0x55, 0x00, 0x55, 0x55, 0x41, 0x51, 0x14,
   0xaa, 0x0a, 0x80, 0xaa, 0xaa, 0x80, 0x20, 0x08, 0x55, 0x05, 0xc0, 0x55,
   0x55, 0x45, 0x40, 0x04, 0x00, 0x00, 0x80, 0x00, 0x00, 0x8a, 0x20, 0x08,
   0x57, 0x57, 0x77, 0x01, 0x00, 0x54, 0x51, 0x15, 0xaa, 0xaa, 0xaa, 0x00,
   0x00, 0xa0, 0x20, 0x08, 0x44, 0x44, 0x44, 0x00, 0x00, 0xd0, 0x40, 0x04,
   0x00, 0x00, 0x80, 0x00, 0x00, 0xa0, 0x20, 0x08, 0x00, 0x00, 0x40, 0x01,
   0x00, 0xd0, 0x50, 0x14, 0x00, 0x00, 0x80, 0x00, 0x00, 0x80, 0x20, 0x08,
   0x00, 0x00, 0x40, 0x00, 0x00, 0xc0, 0x40, 0x04, 0x00, 0x00, 0x80, 0x00,
   0x00, 0x80, 0x20, 0x08, 0x00, 0x00, 0x40, 0x01, 0x00, 0x40, 0x50, 0x15,
   0x00, 0x00, 0x80, 0x00, 0x00, 0x80, 0x20, 0x08, 0x00, 0x00, 0x40, 0x00,
   0x00, 0x40, 0x40, 0x04, 0x00, 0x00, 0x80, 0x00, 0x00, 0x20, 0x20, 0x08,
   0x01, 0x00, 0x55, 0x01, 0x00, 0x50, 0x70, 0x14, 0x00, 0x80, 0xaa, 0x00,
   0x00, 0x08, 0x20, 0x08, 0x00, 0x00, 0x45, 0x00, 0x00, 0x15, 0x40, 0x04,
   0x00, 0x00, 0x82, 0xaa, 0xaa, 0x02, 0x20, 0x08, 0x01, 0x01, 0xc1, 0xff,
   0xff, 0x05, 0x71, 0x15 };
